<svg fill="#ff0000" id="Capa_1" enable-background="new 0 0 512 512" height="512" viewBox="0 0 512 512" width="512" xmlns="http://www.w3.org/2000/svg"><g><path d="m151 241.002h60v30h-60v90h90v-30h-60v-30h60v-90h-90z"/><path d="m271 211.002v90h60v60h30v-150h-30v60h-30v-60z"/><path d="m462.001 245.303v-9.301c0-113.589-92.412-206-206.001-206s-206.001 92.412-206.001 206v9.301c-29.097 10.321-49.999 38.11-49.999 70.701 0 41.356 33.646 75.002 75.002 75.002h34.999v-150.004h-30.002v-5c0-97.047 78.954-176 176.001-176s176.001 78.954 176.001 176v5h-30.002v163.979c0 25.925-21.092 47.017-47.018 47.017h-98.981v30h98.981c42.468 0 77.018-34.549 77.018-77.017v-13.976h4.999c41.356 0 75.002-33.646 75.002-75.002 0-32.59-20.902-60.379-49.999-70.7z"/></g></svg>