<svg fill="#ff0000" id="Capa_1" enable-background="new 0 0 512 512" viewBox="0 0 512 512" xmlns="http://www.w3.org/2000/svg"><g><path d="m436 196h-15.76c-7.613-83.969-78.321-150-164.24-150s-156.627 66.031-164.24 150h-15.76c-41.353 0-76 33.647-76 75s34.647 75 76 75h45v-135c0-74.443 60.557-135 135-135s135 60.557 135 135v120c0 50.127-24.771 56.733-85.825 68.057-2.961.549-6.134 1.179-9.177 1.754-7.429-14.649-22.478-24.811-39.998-24.811-24.814 0-45 20.186-45 45s20.186 45 45 45c21.509 0 39.492-15.187 43.912-35.389 3.576-.677 7.269-1.412 10.726-2.053 52.652-9.769 102.008-19.752 108.962-82.559h16.4c41.353 0 76-33.647 76-75s-34.647-74.999-76-74.999z"/><path d="m372.675 244.325c-64.336-64.336-169.014-64.336-233.35 0l21.211 21.211c52.646-52.617 138.281-52.617 190.928 0z"/><path d="m330.238 286.762c-39.609-39.609-108.867-39.609-148.477 0l21.211 21.211c28.271-28.271 77.783-28.271 106.055 0z"/><path d="m224.184 329.184 21.211 21.211c5.859-5.859 15.352-5.859 21.211 0l21.211-21.211c-17.549-17.549-46.085-17.549-63.633 0z"/></g></svg>