<svg fill="#ff0000" id="Layer_3" enable-background="new 0 0 64 64" height="512" viewBox="0 0 64 64" width="512" xmlns="http://www.w3.org/2000/svg"><g><path d="m28.707 23.293-1.563-1.563.577-1.73h2.279c.552 0 1-.447 1-1v-6c0-.553-.448-1-1-1h-2.279l-.577-1.729 1.563-1.563c.391-.391.391-1.023 0-1.414l-4-4c-.391-.391-1.023-.391-1.414 0l-1.563 1.561-1.73-.576v-2.279c0-.553-.448-1-1-1h-6c-.552 0-1 .447-1 1v2.279l-1.73.576-1.563-1.562c-.391-.391-1.023-.391-1.414 0l-4 4c-.391.391-.391 1.023 0 1.414l1.563 1.563-.577 1.73h-2.279c-.552 0-1 .447-1 1v6c0 .553.448 1 1 1h2.279l.577 1.729-1.563 1.563c-.391.391-.391 1.023 0 1.414l4 4c.391.391 1.023.391 1.414 0l1.563-1.562 1.73.577v2.279c0 .553.448 1 1 1h6c.552 0 1-.447 1-1v-2.279l1.73-.576 1.563 1.562c.391.391 1.023.391 1.414 0l4-4c.391-.391.391-1.023 0-1.414zm-3.414-.586 1.293 1.293-2.586 2.586-1.293-1.293c-.269-.269-.664-.363-1.023-.241l-3 1c-.409.136-.684.517-.684.948v2h-4v-2c0-.431-.275-.812-.684-.948l-3-1c-.36-.121-.755-.026-1.023.241l-1.293 1.293-2.586-2.586 1.293-1.293c.268-.268.361-.664.242-1.023l-1-3c-.137-.409-.518-.684-.949-.684h-2v-4h2c.431 0 .812-.275.949-.684l1-3c.12-.359.026-.756-.242-1.023l-1.293-1.293 2.586-2.586 1.293 1.293c.267.268.663.361 1.023.241l3-1c.409-.136.684-.517.684-.948v-2h4v2c0 .431.275.812.684.948l3 1c.361.121.756.026 1.023-.241l1.293-1.293 2.586 2.586-1.293 1.293c-.268.268-.361.664-.242 1.023l1 3c.137.409.518.684.949.684h2v4h-2c-.431 0-.812.275-.949.684l-1 3c-.119.359-.026.755.242 1.023z"/><path d="m16 7c-4.962 0-9 4.037-9 9s4.038 9 9 9 9-4.037 9-9-4.038-9-9-9zm0 16c-3.86 0-7-3.141-7-7s3.14-7 7-7 7 3.141 7 7-3.14 7-7 7z"/><path d="m42.707 45.707 3-3c.391-.391.391-1.023 0-1.414l-1.49-1.49.401-.803h1.382c.552 0 1-.447 1-1v-4c0-.553-.448-1-1-1h-1.382l-.401-.803 1.49-1.49c.391-.391.391-1.023 0-1.414l-3-3c-.391-.391-1.023-.391-1.414 0l-1.49 1.49-.803-.401v-1.382c0-.553-.448-1-1-1h-4c-.552 0-1 .447-1 1v1.382l-.803.401-1.49-1.49c-.391-.391-1.023-.391-1.414 0l-3 3c-.391.391-.391 1.023 0 1.414l1.49 1.49-.401.803h-1.382c-.552 0-1 .447-1 1v4c0 .553.448 1 1 1h1.382l.401.803-1.49 1.49c-.391.391-.391 1.023 0 1.414l3 3c.391.391 1.023.391 1.414 0l1.49-1.49.803.401v1.382c0 .553.448 1 1 1h4c.552 0 1-.447 1-1v-1.382l.803-.401 1.49 1.49c.391.391 1.023.391 1.414 0zm-3.154-3.602-2 1c-.339.17-.553.516-.553.895v1h-2v-1c0-.379-.214-.725-.553-.895l-2-1c-.385-.193-.85-.116-1.154.188l-1.293 1.293-1.586-1.586 1.293-1.293c.304-.305.38-.77.188-1.154l-1-2c-.17-.339-.516-.553-.895-.553h-1v-2h1c.379 0 .725-.214.895-.553l1-2c.192-.385.117-.85-.188-1.154l-1.293-1.293 1.586-1.586 1.293 1.293c.303.305.769.381 1.154.188l2-1c.339-.17.553-.516.553-.895v-1h2v1c0 .379.214.725.553.895l2 1c.386.194.851.117 1.154-.188l1.293-1.293 1.586 1.586-1.293 1.293c-.304.305-.38.77-.188 1.154l1 2c.17.339.516.553.895.553h1v2h-1c-.379 0-.725.214-.895.553l-1 2c-.192.385-.117.85.188 1.154l1.293 1.293-1.586 1.586-1.293-1.293c-.304-.305-.769-.382-1.154-.188z"/><path d="m36 30c-3.309 0-6 2.691-6 6s2.691 6 6 6 6-2.691 6-6-2.691-6-6-6zm0 10c-2.206 0-4-1.794-4-4s1.794-4 4-4 4 1.794 4 4-1.794 4-4 4z"/><path d="m22 41h-1.382l-.401-.803 1.49-1.49c.391-.391.391-1.023 0-1.414l-3-3c-.391-.391-1.023-.391-1.414 0l-1.49 1.49-.803-.401v-1.382c0-.553-.448-1-1-1h-4c-.552 0-1 .447-1 1v1.382l-.803.401-1.49-1.49c-.391-.391-1.023-.391-1.414 0l-3 3c-.391.391-.391 1.023 0 1.414l1.49 1.49-.401.803h-1.382c-.552 0-1 .447-1 1v4c0 .553.448 1 1 1h1.382l.401.803-1.49 1.49c-.391.391-.391 1.023 0 1.414l3 3c.391.391 1.023.391 1.414 0l1.49-1.49.803.401v1.382c0 .553.448 1 1 1h4c.552 0 1-.447 1-1v-1.382l.803-.401 1.49 1.49c.391.391 1.023.391 1.414 0l3-3c.391-.391.391-1.023 0-1.414l-1.49-1.49.401-.803h1.382c.552 0 1-.447 1-1v-4c0-.553-.448-1-1-1zm-1 4h-1c-.379 0-.725.214-.895.553l-1 2c-.192.385-.117.85.188 1.154l1.293 1.293-1.586 1.586-1.293-1.293c-.304-.305-.769-.381-1.154-.188l-2 1c-.339.17-.553.516-.553.895v1h-2v-1c0-.379-.214-.725-.553-.895l-2-1c-.386-.192-.85-.116-1.154.188l-1.293 1.293-1.586-1.586 1.293-1.293c.304-.305.38-.77.188-1.154l-1-2c-.17-.339-.516-.553-.895-.553h-1v-2h1c.379 0 .725-.214.895-.553l1-2c.192-.385.117-.85-.188-1.154l-1.293-1.293 1.586-1.586 1.293 1.293c.304.305.768.381 1.154.188l2-1c.339-.17.553-.516.553-.895v-1h2v1c0 .379.214.725.553.895l2 1c.386.194.851.118 1.154-.188l1.293-1.293 1.586 1.586-1.293 1.293c-.304.305-.38.77-.188 1.154l1 2c.17.339.516.553.895.553h1z"/><path d="m12 38c-3.309 0-6 2.691-6 6s2.691 6 6 6 6-2.691 6-6-2.691-6-6-6zm0 10c-2.206 0-4-1.794-4-4s1.794-4 4-4 4 1.794 4 4-1.794 4-4 4z"/><path d="m56.993 43.194c-.656-3.693-.993-7.442-.993-11.194s.337-7.5.993-11.193c3.665-1.856 6.007-5.609 6.007-9.719 0-4.342-2.592-8.269-6.603-10.005-.308-.132-.664-.103-.946.082-.282.185-.451.499-.451.836v4.809l-1.523 2.19h-2.954l-1.523-2.19v-4.81c0-.337-.169-.651-.451-.836s-.638-.215-.946-.082c-4.012 1.737-6.603 5.665-6.603 10.006 0 4.11 2.343 7.864 6.007 9.718.656 3.693.993 7.442.993 11.194s-.337 7.5-.993 11.194c-3.664 1.856-6.007 5.609-6.007 9.718 0 4.342 2.592 8.269 6.603 10.005.309.133.664.103.946-.082s.451-.499.451-.836v-4.809l1.523-2.19h2.954l1.523 2.19v4.81c0 .337.169.651.451.836.166.108.357.164.549.164.135 0 .27-.027.397-.082 4.011-1.737 6.603-5.664 6.603-10.006 0-4.109-2.343-7.862-6.007-9.718zm-6.993-11.194c0-5.046-.581-10.087-1.728-15h7.456c-1.147 4.914-1.728 9.955-1.728 15 0 5.046.581 10.087 1.728 15h-7.456c1.147-4.914 1.728-9.955 1.728-15zm-7-20.912c0-3.011 1.529-5.778 4-7.413v3.448c0 .204.062.403.179.57l2 2.878c.187.269.493.429.821.429h4c.328 0 .634-.16.821-.429l2-2.878c.117-.167.179-.366.179-.57v-3.448c2.471 1.635 4 4.402 4 7.413 0 2.773-1.32 5.336-3.466 7.002.12-.538.243-1.075.376-1.609l.06-.239c.075-.298.007-.614-.182-.857s-.48-.385-.788-.385h-10c-.308 0-.599.142-.788.384-.189.243-.257.56-.182.857l.06.24c.134.534.256 1.072.376 1.609-2.146-1.666-3.466-4.229-3.466-7.002zm14 49.237v-3.448c0-.204-.062-.403-.179-.571l-2-2.877c-.187-.269-.493-.429-.821-.429h-4c-.328 0-.634.16-.821.429l-2 2.877c-.117.168-.179.367-.179.571v3.448c-2.47-1.635-4-4.402-4-7.413 0-2.772 1.32-5.335 3.466-7.003-.12.538-.243 1.075-.376 1.61l-.06.239c-.075.298-.007.614.182.857s.48.385.788.385h10c.308 0 .599-.142.788-.384.189-.243.257-.56.182-.857l-.06-.24c-.134-.534-.256-1.071-.376-1.609 2.146 1.667 3.466 4.23 3.466 7.002 0 3.011-1.529 5.778-4 7.413z"/><path d="m51 19h2v2h-2z"/><path d="m51 43h2v2h-2z"/></g></svg>