<?xml version="1.0" encoding="UTF-8" standalone="no"?>
<svg
   xmlns:dc="http://purl.org/dc/elements/1.1/"
   xmlns:cc="http://creativecommons.org/ns#"
   xmlns:rdf="http://www.w3.org/1999/02/22-rdf-syntax-ns#"
   xmlns:svg="http://www.w3.org/2000/svg"
   xmlns="http://www.w3.org/2000/svg"
   viewBox="0 0 696 153.33333"
   height="153.33333"
   width="696"
   xml:space="preserve"
   id="svg2"
   version="1.1"><metadata
     id="metadata8"><rdf:RDF><cc:Work
         rdf:about=""><dc:format>image/svg+xml</dc:format><dc:type
           rdf:resource="http://purl.org/dc/dcmitype/StillImage" /></cc:Work></rdf:RDF></metadata><defs
     id="defs6" /><g
     transform="matrix(1.3333333,0,0,-1.3333333,0,153.33333)"
     id="g10"><g
       transform="scale(0.1)"
       id="g12"><path
         id="path14"
         style="fill:#ffffff;fill-opacity:1;fill-rule:nonzero;stroke:none"
         d="m 5000.45,390.309 c 5.5,-7.496 10.49,-15.993 15.49,-25.489 -108.46,-92.965 -245.4,-60.976 -410.83,96.461 122.44,-190.926 266.39,-237.906 431.82,-140.445 24.49,-60.477 44.48,-142.441 60.98,-245.9024 7.5,111.9574 2.5,203.4184 -16,274.3904 -23.99,164.934 -488.3,268.395 -1393.44,309.875 -252.4,150.942 -490.3,282.887 -714.21,396.341 -34.49,13.5 -74.97,24.99 -120.46,34.99 -162.43,35.98 -393.34,52.98 -692.72,50.98 -217.41,9.49 -419.33,1.5 -605.76,-24.49 l -92.46,31.48 h -64.47 c -8,-4.49 -11,-9.99 -8.5,-17.49 11.5,-14.99 14.5,-29.49 9,-43.98 -30.49,-7.5 -59.48,-14.99 -86.47,-22.99 C 1088.01,997.566 869.102,908.102 654.688,796.145 568.219,779.652 400.289,764.16 149.887,749.164 l -38.985,-30.488 c 2.5,-67.473 -1,-115.453 -9.996,-144.442 l 40.985,-3.5 -25.489,-146.441 C 96.4102,424.793 87.4141,409.801 88.9141,379.313 70.418,377.813 64.4219,364.82 69.918,339.328 H 47.4297 C 23.9375,289.348 55.9258,230.871 143.891,164.398 107.906,205.883 87.4141,253.863 82.9141,309.34 h 28.9879 v 60.976 c 10.496,21.493 27.489,32.989 50.981,34.485 l 5.996,39.984 h 50.98 c 4,0.5 7.496,2.5 10.996,6 2.5,2.496 4,4.496 4.997,6.996 v 7.496 h -63.473 l 3,19.993 h 99.957 v 19.992 h -96.961 l 3.5,19.992 h 126.949 v 19.992 H 184.875 l 2.496,15.492 -3.996,4.5 H 315.32 l 25.993,-0.5 c 3.996,0.5 7.496,2.5 10.996,5.996 2.496,2.5 3.996,4.5 4.996,7 v 7.496 h -4.996 -177.93 c 1.5,6.997 3.496,13.497 5.996,19.993 h 189.926 c 3.996,0.5 7.496,2.5 10.996,5.996 2.496,2.5 3.996,4.5 4.996,7 v 7.496 H 188.871 c 3.5,6.496 7,12.992 10.996,18.992 2.5,3.996 5,7.496 7.996,10.996 15.496,19.492 35.989,35.485 61.477,47.981 l 370.351,41.484 c 453.319,199.918 809.679,314.372 1069.579,343.362 542.28,24.49 914.13,11.99 1115.55,-37.99 8.49,-1.5 17.99,-4.49 28.98,-7.99 117.46,-38.49 376.36,-176.933 776.7,-416.335 l -2401.54,77.469 c -92.47,52.476 -100.96,120.949 -25,206.418 -110.95,-75.473 -104.45,-155.938 19.5,-240.907 l 2916.83,-96.461 c 426.33,-21.492 713.21,-81.964 860.16,-182.425" /><path
         id="path16"
         style="fill:#ffffff;fill-opacity:1;fill-rule:nonzero;stroke:none"
         d="m 350.809,537.75 v 7.496 h -41.985 v -19.992 l 25.989,-0.5 c 4,0.5 7.5,2.5 10.996,6 2.5,2.496 4,4.496 5,6.996" /><path
         id="path18"
         style="fill:#ffffff;fill-opacity:1;fill-rule:nonzero;stroke:none"
         d="M 335.813,504.762 H 317.32 v 0.5 H 275.336 V 485.27 l 25.992,-0.5 c 3.996,0.5 7.496,2.5 10.996,6 2.496,2.496 3.996,4.496 4.996,6.996 v 6.996 h 18.493" /><path
         id="path20"
         style="fill:#ffffff;fill-opacity:1;fill-rule:nonzero;stroke:none"
         d="m 302.328,464.777 h -26.992 26.992" /><path
         id="path22"
         style="fill:#ffffff;fill-opacity:1;fill-rule:nonzero;stroke:none"
         d="m 212.863,424.793 h 26.989 -26.989" /><path
         id="path24"
         style="fill:#ff0000;fill-opacity:1;fill-rule:nonzero;stroke:none"
         d="M 38.9336,80.4336 2.44531,-7.03125 5226.36,29.4531 Z" /><path
         id="path26"
         style="fill:#ffffff;fill-opacity:1;fill-rule:nonzero;stroke:none"
         d="m 4543.13,424.793 c -3.5,5.5 -7,9.996 -11,12.496 -4.49,3 -8.99,4.5 -13.49,5 l -101.46,2.996 c -5.5,0.5 -10,-1 -13.99,-4.496 -4.5,-2 -8.5,-5.5 -11.5,-10.996 -3.5,-4.5 -6,-10.996 -7.99,-18.992 -2,-6.5 -3,-13.496 -2.5,-21.492 l -0.5,-55.477 c 0,-7.5 1,-14.996 3,-22.492 1.49,-6.496 3.99,-11.996 7.49,-17.492 3,-5 7,-8.996 11.5,-12.496 4.49,-3 8.99,-4.497 13.99,-4.497 l 99.46,-2 v -47.48 l -97.96,0.996 v 22.992 h -37.48 v -25.488 c 0,-7.496 1,-15.496 3,-22.992 1.49,-4.996 3.49,-9.996 5.99,-14.992 0.5,-1 1,-2 1.5,-3 3,-4.5 7,-8.496 11.5,-11.996 3.99,-2.5 8.49,-3.997 13.99,-3.997 l 101.96,-0.5 c 4.5,0 9,1.497 13.49,3.997 4,3.5 7.5,7 11,11.496 0.5,1.5 1.5,2.5 2,3 2.5,4.496 4.5,9.996 6,15.492 1.5,6.496 2,13.996 2.5,21.492 v 53.977 c -0.5,8 -1,15.496 -2.5,21.992 -2.5,6.996 -5,12.996 -8,17.992 -3.5,5 -7,8.996 -11,11.996 -4.49,3.5 -8.99,5 -13.49,5 l -100.46,1.496 v 48.481 l 97.96,-2.496 V 360.32 l 37.49,-1 v 25.489 c -0.5,8 -1,15.496 -2.5,21.992 -2,7.496 -4.5,13.496 -8,17.992" /><path
         id="path28"
         style="fill:#ffffff;fill-opacity:1;fill-rule:nonzero;stroke:none"
         d="m 3031.73,480.773 c -5.49,3.497 -11.49,5.497 -16.99,5.997 l -130.95,4 c -6.99,0.5 -12.99,-1.5 -18.49,-5 -5.5,-2.5 -10.5,-6.997 -14.49,-12.497 -4.5,-5.496 -8,-12.492 -10.5,-20.988 -2.5,-7.5 -4,-15.996 -3.5,-24.992 l -1.5,-185.926 c -0.5,-8.496 1,-16.992 3.5,-24.988 2,-7.996 5,-14.996 9.5,-20.992 4,-5.5 8.99,-9.996 14.99,-14.496 5.5,-2.996 11.5,-4.496 18,-4.496 l 131.44,-1 c 5.5,0 11.5,1.5 16.99,4.996 5.5,3.5 10.5,8.5 14.5,13.996 4.5,5.496 7.5,12.496 10,19.992 2,7.996 3,16.492 3.49,24.988 l 1.5,181.93 c -0.5,9.496 -1.5,18.492 -3.49,25.988 -2.5,7.996 -5.5,14.496 -9.5,19.992 -4.5,5.996 -9,10.496 -14.5,13.496 z m -20.99,-61.976 -1,-175.93 -125.95,1.5 1.5,177.93 125.45,-3.5" /><path
         id="path30"
         style="fill:#ffffff;fill-opacity:1;fill-rule:nonzero;stroke:none"
         d="m 3111.7,465.277 c -4,-5.496 -6.99,-11.996 -8.99,-20.492 -3,-6.996 -4.5,-14.992 -4,-23.988 l -0.5,-61.477 c -0.5,-8.496 1,-16.992 3.5,-24.988 2,-7.5 4.99,-14.496 8.99,-20.492 4,-5 8.5,-9.496 14,-12.996 5.5,-3.5 10.99,-4.996 17.49,-5.496 l 123.45,-2 -0.5,-53.481 -120.95,2 v 24.992 l -46.48,0.996 v -28.488 c -0.5,-8.996 1,-17.492 3.5,-25.488 1.5,-7.496 4.5,-13.996 8.49,-20.492 4,-5.496 9,-9.996 14.5,-13.496 5.5,-3.496 11,-4.996 17.49,-4.996 l 125.95,-0.5 c 5.5,0.5 11,2 16.99,5 5,3.496 9.5,7.996 13.5,13.492 4,5.5 7,11.996 9.5,19.492 2.5,7.996 3.5,15.992 3.99,23.992 v 59.977 c 0,9.496 -0.99,17.492 -3.49,24.988 -2,7.496 -5,14.492 -8.5,19.992 -4,5.496 -8.5,9.996 -14,12.996 -5.49,3.496 -10.99,5.496 -16.49,4.996 l -124.45,3 0.5,53.977 120.95,-3.496 -0.5,-24.992 46.48,-1 0.5,28.488 c 0,9.496 -1,17.496 -3.49,24.992 -2.5,7.996 -6,14.992 -9.5,20.492 -4,5.496 -8.5,9.996 -13.5,12.992 -5.49,3.5 -10.99,5.5 -16.99,5 l -125.45,4.497 c -6.5,0 -12.49,-1.997 -17.99,-5.497 -5.5,-2 -10,-5.996 -14,-12.496" /><path
         id="path32"
         style="fill:#ffffff;fill-opacity:1;fill-rule:nonzero;stroke:none"
         d="m 3544.53,471.277 -189.92,5.996 -1.5,-302.878 189.92,-1.5 0.5,63.976 -144.94,2.496 0.5,51.981 116.45,-1.5 0.5,64.976 -116.45,2.496 v 52.481 l 144.44,-3.5 0.5,64.976" /><path
         id="path34"
         style="fill:#ffffff;fill-opacity:1;fill-rule:nonzero;stroke:none"
         d="m 3779.93,426.293 c -1.99,7.496 -4.49,14.496 -7.99,19.992 -4.5,6 -8.5,10.496 -12.99,13.496 -5,3.496 -10,4.996 -15.5,4.996 l -157.44,4.5 -1.5,-296.382 42.99,-0.5 0.5,94.964 0.5,-0.5 c 0,1.496 0,2.496 -0.5,2.496 h 56.97 l 53.98,-97.46 h 42.98 v 21.492 c -6.99,12.496 -13.49,25.488 -19.99,37.984 -7.49,12.496 -14.99,24.492 -21.49,36.984 h 1.5 c 6,0.5 11.5,2 16,4.5 4.99,3 9.49,6.997 12.99,12.497 3.5,5.496 6,11.992 8.49,19.492 2,7.496 3,14.992 3.5,22.988 v 75.473 c 0,7.996 -1,15.492 -3,22.988 z m -39.48,-24.988 v -69.973 l -111.95,2 v 70.969 l 111.95,-2.996" /><path
         id="path36"
         style="fill:#ffffff;fill-opacity:1;fill-rule:nonzero;stroke:none"
         d="m 3854.41,461.781 -48.48,1.996 110.45,-291.882 33.99,-1 108.95,284.886 -46.48,1.5 -78.96,-206.918 -79.47,211.418" /><path
         id="path38"
         style="fill:#ffffff;fill-opacity:1;fill-rule:nonzero;stroke:none"
         d="m 4311.22,448.285 -105.95,3.5 c -5.5,0 -10,-1.5 -14.5,-5 -5,-2 -9,-5.996 -11.99,-11.496 -3.5,-4.996 -6,-10.996 -7.5,-18.492 -2.5,-6.496 -3.5,-13.992 -3.5,-21.992 v -55.977 c -0.5,-8.496 1,-15.992 3.5,-22.988 1.5,-7 4,-13.496 7.5,-18.996 2.99,-4.996 6.99,-8.996 11.99,-12.492 4.5,-3 9,-4.5 14.5,-4.5 l 102.95,-1.5 v -49.481 l -101.45,2 v 22.992 l -38.99,0.5 v -25.992 c -0.5,-8.496 0.5,-15.992 3,-22.988 1.5,-6.996 4.5,-13.496 8,-18.992 2.99,-4.5 6.99,-8.496 11.49,-12.496 4.5,-2.5 9.5,-4 15,-4 l 105.95,-0.997 c 4.5,0.5 9,1.997 13.5,4.497 4.49,3.5 7.99,7.496 11.49,11.996 0.5,1.5 1.5,3 2,3.5 2.5,3.996 4.5,8.996 6,14.492 2,7.496 3,14.996 3,22.492 v 54.977 c 0,8.496 -1,15.992 -3,22.492 -2,6.996 -4.5,12.992 -8,18.492 -3.5,5.496 -7,9.496 -10.99,11.996 -4.5,3.496 -9.5,4.996 -14,4.996 l -103.95,2.5 v 48.981 l 101.45,-2.5 V 364.82 l 38.49,-1 v 25.989 c -0.5,7.996 -1,15.492 -2.5,22.492 -2,7.496 -4.5,13.492 -8,17.992 -3.5,5.496 -7,9.996 -11.49,13.492 -4.5,3 -9.5,4.5 -14,4.5" /><path
         id="path40"
         style="fill:#ffffff;fill-opacity:1;fill-rule:nonzero;stroke:none"
         d="m 4131.3,453.281 -39.99,2 -0.5,-284.886 39.99,-0.5 0.5,283.386" /><path
         id="path42"
         style="fill:#ffffff;fill-opacity:1;fill-rule:nonzero;stroke:none"
         d="m 1471.36,533.25 -164.93,4 c -8,0.5 -15.5,-1.5 -23,-5.5 -7.49,-2.496 -13.49,-7.496 -18.49,-14.492 -5.49,-5.996 -9.99,-13.496 -12.49,-22.492 -3.5,-8.496 -5,-17.993 -5.5,-28.489 l -4,-281.386 60.98,-0.5 1.5,113.953 159.43,-1.996 -1.5,-112.457 60.48,-0.5 4,276.39 c 0,9.996 -1.5,19.492 -4.5,27.989 -3.5,8.496 -7.5,16.492 -12,22.992 -5.5,6.496 -10.99,11.492 -17.49,14.992 -7,4.5 -14.49,6.996 -22.49,7.496 z m -163.43,-72.469 159.43,-3.5 -1.5,-85.465 -158.93,2.5 1,86.465" /><path
         id="path44"
         style="fill:#ffffff;fill-opacity:1;fill-rule:nonzero;stroke:none"
         d="m 1568.32,503.762 c 15.49,-23.489 31.49,-48.481 47.98,-73.969 15.5,-25.988 31.49,-50.98 47.48,-74.969 l -98.96,-145.945 -1,-25.488 h 61.48 c 5.5,8.996 11.49,17.992 18.99,27.488 6.5,9.996 13.5,19.492 19.99,28.988 6.5,10.496 12.5,19.992 18.99,28.988 6.5,9.497 12,18.493 17.5,25.993 l 72.47,-112.457 59.47,-0.5 1,25.992 -93.96,145.441 96.46,142.942 1,24.988 -59.97,2 c -5.5,-8.996 -11.5,-18.492 -18,-27.988 -6.99,-9.496 -13.49,-18.993 -19.99,-28.989 -6.5,-8.496 -12.49,-17.992 -18.99,-27.988 -7,-9.496 -12.99,-17.992 -17.49,-25.488 l -72.97,115.453 -60.98,1.5 -0.5,-25.992" /><path
         id="path46"
         style="fill:#ffffff;fill-opacity:1;fill-rule:nonzero;stroke:none"
         d="m 1983.16,475.773 c -3,-8.496 -4.5,-17.492 -4.5,-26.988 l -3.5,-267.394 55.48,-0.5 1,107.957 143.94,-1.996 -1,-106.461 54.47,-0.5 2.5,262.398 c 0,9.496 -1.5,18.492 -4,26.988 -2.99,8.496 -6.49,15.493 -10.99,21.493 -4.5,6.496 -9.99,10.992 -15.49,14.492 -6.5,4.5 -13.5,6.496 -20,6.496 l -149.43,4.5 c -7,0.5 -13.5,-1.5 -20,-5.496 -7,-2.5 -12.49,-7.5 -16.99,-13.996 -5,-5.496 -9,-12.496 -11.49,-20.993 z m 50.47,-32.488 143.45,-3.996 -1,-80.469 -143.45,2.5 1,81.965" /><path
         id="path48"
         style="fill:#ffffff;fill-opacity:1;fill-rule:nonzero;stroke:none"
         d="m 2340.51,506.762 -52.48,2 -2.49,-261.895 c -0.5,-8.996 0.99,-17.496 3.49,-25.992 2.5,-8.496 6,-15.492 10.5,-21.988 4,-5.5 9.49,-10.496 15.99,-14.496 6,-3.5 12.5,-4.996 19.5,-4.996 l 142.94,-1 c 6.49,0.5 12.49,1.996 18.99,4.996 6,3.5 11,8.496 15.49,13.996 4.5,5.996 8,12.992 11,20.992 2.5,8.496 3.5,16.992 3.5,26.488 l 2.5,256.399 -51.98,1.996 -2,-254.899 -137.45,2 2.5,256.399" /><path
         id="path50"
         style="fill:#ffffff;fill-opacity:1;fill-rule:nonzero;stroke:none"
         d="m 2570.92,500.266 -1.5,-70.473 91.96,-2.5 -2,-249.898 h 50.48 l 2,248.898 89.97,-1.5 0.5,68.973 -231.41,6.5" /><path
         id="path52"
         style="fill:#ffffff;fill-opacity:1;fill-rule:nonzero;stroke:none"
         d="m 826.117,551.242 -65.472,3 -6.5,-366.851 65.976,-1 5.996,364.851" /><path
         id="path54"
         style="fill:#ffffff;fill-opacity:1;fill-rule:nonzero;stroke:none"
         d="m 696.168,533.75 c -5.496,6.5 -11.992,11.996 -18.992,15.996 -8.496,4.496 -16.992,6.996 -25.488,7.496 l -250.399,7.496 -6.5,-375.847 250.402,-1 c 8.497,0.5 16.993,1.996 25.489,5.496 7.496,4.5 14.492,9.496 20.492,15.992 5.496,7 9.996,14.996 13.992,24.492 3.5,9.496 5,18.992 5.5,28.988 l 3.5,217.414 c 0.496,10.497 -1.5,19.993 -5,28.989 -3,9.496 -7.496,17.492 -12.996,24.488 z m -227.406,-52.977 177.926,-4 -3.497,-209.418 -177.929,1.5 3.5,211.918" /><path
         id="path56"
         style="fill:#ffffff;fill-opacity:1;fill-rule:nonzero;stroke:none"
         d="m 940.07,548.246 -66.472,2 -5.996,-363.855 64.972,-0.5 3.5,242.402 100.456,-148.941 c 16,23.492 32.99,47.98 51.48,72.472 17.49,25.489 34.49,49.481 51.48,72.469 l -3.5,-238.902 62.48,-0.5 5.49,355.855 -64.47,2 -100.96,-142.441 -98.46,147.941" /></g></g></svg>