<svg fill="#ff0000" id="Layer_3" enable-background="new 0 0 64 64" height="512" viewBox="0 0 64 64" width="512" xmlns="http://www.w3.org/2000/svg"><g><path d="m6 45h20c.552 0 1-.447 1-1v-12c0-.552-.448-1-1-1h-20c-.552 0-1 .448-1 1v12c0 .553.448 1 1 1zm1-12h18v10h-18z"/><path d="m29 31h18v2h-18z"/><path d="m29 35h18v2h-18z"/><path d="m29 39h18v2h-18z"/><path d="m46 47h-40c-.552 0-1 .447-1 1v10c0 .553.448 1 1 1h40c.552 0 1-.447 1-1v-10c0-.553-.448-1-1-1zm-1 10h-38v-8h38z"/><path d="m60 1h-28c-1.654 0-3 1.346-3 3v13h-27c-.552 0-1 .448-1 1v44c0 .553.448 1 1 1h48c.552 0 1-.447 1-1v-39h9c1.654 0 3-1.346 3-3v-16c0-1.654-1.346-3-3-3zm-31 18v1c0 1.654 1.346 3 3 3h5v2h-34v-6zm-26 42v-34h34v1c0 .404.244.769.617.924.124.051.254.076.383.076.26 0 .516-.102.707-.293l1.707-1.707h8.586v34zm46-36h-6.586l2-2h4.586zm-3-12c-1.654 0-3-1.346-3-3s1.346-3 3-3 3 1.346 3 3-1.346 3-3 3zm0 2c.342 0 .677-.035 1-.101v6.101h-2v-6.101c.323.066.658.101 1 .101zm15 5c0 .551-.449 1-1 1h-11v-7h-.031c.308-.229.582-.495.83-.787l1.494 1.494c.187.188.442.293.707.293h4c.552 0 1-.448 1-1v-8c0-.552-.448-1-1-1h-4c-.265 0-.52.105-.707.293l-1.494 1.494c-.918-1.083-2.271-1.787-3.799-1.787s-2.881.704-3.799 1.787l-1.494-1.494c-.187-.188-.442-.293-.707-.293h-4c-.552 0-1 .448-1 1v8c0 .552.448 1 1 1h4c.265 0 .52-.105.707-.293l1.494-1.494c.248.292.522.558.83.787h-.031v7.586l-4 4v-3.586c0-.552-.448-1-1-1h-6c-.551 0-1-.449-1-1v-16c0-.551.449-1 1-1h28c.551 0 1 .449 1 1zm-10.215-11.371 1.629-1.629h2.586v6h-2.586l-1.629-1.629c.126-.439.215-.892.215-1.371s-.089-.932-.215-1.371zm-9.57 2.742-1.629 1.629h-2.586v-6h2.586l1.629 1.629c-.126.439-.215.892-.215 1.371s.089.932.215 1.371z"/><path d="m29 43h18v2h-18z"/></g></svg>